STARTFONT 2.1
FONT -FontForge-Fez-Regular-R-Normal--20-190-75-75-C-200-ISO10646-1
SIZE 19 75 75
FONTBOUNDINGBOX 20 20 0 -4
COMMENT "Generated by fontforge, http://fontforge.sourceforge.net"
COMMENT "Copyright (c) 2015, peko,,,"
STARTPROPERTIES 32
FOUNDRY "FontForge"
FAMILY_NAME "Fez"
WEIGHT_NAME "Regular"
SLANT "R"
SETWIDTH_NAME "Normal"
ADD_STYLE_NAME ""
PIXEL_SIZE 20
POINT_SIZE 190
RESOLUTION_X 75
RESOLUTION_Y 75
SPACING "C"
AVERAGE_WIDTH 200
CHARSET_REGISTRY "ISO10646"
CHARSET_ENCODING "1"
FONTNAME_REGISTRY ""
CHARSET_COLLECTIONS "ISO10646-1"
FONT_NAME "Fez"
FACE_NAME "Fez"
COPYRIGHT "Copyright (c) 2015, peko,,,"
FONT_VERSION "001.000"
FONT_ASCENT 16
FONT_DESCENT 4
UNDERLINE_POSITION 0
UNDERLINE_THICKNESS 1
X_HEIGHT 13
CAP_HEIGHT 13
RAW_ASCENT 800
RAW_DESCENT 200
NORM_SPACE 20
FIGURE_WIDTH 20
AVG_LOWERCASE_WIDTH 200
AVG_UPPERCASE_WIDTH 200
ENDPROPERTIES
CHARS 110
STARTCHAR space
ENCODING 32
SWIDTH 1000 0
DWIDTH 20 0
BBX 18 2 0 4
BITMAP
CCCCC0
CCCCC0
ENDCHAR
STARTCHAR exclam
ENCODING 33
SWIDTH 1000 0
DWIDTH 20 0
BBX 18 18 0 -4
BITMAP
FFFFC0
FFFFC0
C000C0
C000C0
C0C0C0
C0C0C0
C0C0C0
C0C0C0
C0C0C0
C0C0C0
C000C0
C000C0
C0C0C0
C0C0C0
C000C0
C000C0
FFFFC0
FFFFC0
ENDCHAR
STARTCHAR quotedbl
ENCODING 34
SWIDTH 1000 0
DWIDTH 20 0
BBX 18 18 0 -4
BITMAP
FFFFC0
FFFFC0
C000C0
C000C0
C330C0
C330C0
C330C0
C330C0
C000C0
C000C0
C000C0
C000C0
C000C0
C000C0
C000C0
C000C0
FFFFC0
FFFFC0
ENDCHAR
STARTCHAR numbersign
ENCODING 35
SWIDTH 1000 0
DWIDTH 20 0
BBX 18 18 0 -4
BITMAP
FFFFC0
FFFFC0
C000C0
C000C0
C330C0
C330C0
CFFCC0
CFFCC0
C330C0
C330C0
CFFCC0
CFFCC0
C330C0
C330C0
C000C0
C000C0
FFFFC0
FFFFC0
ENDCHAR
STARTCHAR dollar
ENCODING 36
SWIDTH 1000 0
DWIDTH 20 0
BBX 18 18 0 -4
BITMAP
FFFFC0
FFFFC0
C000C0
C000C0
CFFCC0
CFFCC0
CCC0C0
CCC0C0
CFFCC0
CFFCC0
C0CCC0
C0CCC0
CFFCC0
CFFCC0
C000C0
C000C0
FFFFC0
FFFFC0
ENDCHAR
STARTCHAR percent
ENCODING 37
SWIDTH 1000 0
DWIDTH 20 0
BBX 18 18 0 -4
BITMAP
FFFFC0
FFFFC0
CCC0C0
CCC0C0
FCC0C0
FCC0C0
C0C0C0
C0C0C0
C0C0C0
C0C0C0
C0C0C0
C0C0C0
C0CFC0
C0CFC0
C0CCC0
C0CCC0
FFFFC0
FFFFC0
ENDCHAR
STARTCHAR ampersand
ENCODING 38
SWIDTH 1000 0
DWIDTH 20 0
BBX 18 18 0 -4
BITMAP
FFFFC0
FFFFC0
C330C0
C330C0
C3F0C0
C3F0C0
C0C0C0
C0C0C0
CFFCC0
CFFCC0
CC0CC0
CC0CC0
CC0FC0
CC0FC0
CC0CC0
CC0CC0
FFFFC0
FFFFC0
ENDCHAR
STARTCHAR quotesingle
ENCODING 39
SWIDTH 1000 0
DWIDTH 20 0
BBX 18 18 0 -4
BITMAP
FFFFC0
FFFFC0
C000C0
C000C0
C0C0C0
C0C0C0
C0C0C0
C0C0C0
C000C0
C000C0
C000C0
C000C0
C000C0
C000C0
C000C0
C000C0
FFFFC0
FFFFC0
ENDCHAR
STARTCHAR parenleft
ENCODING 40
SWIDTH 1000 0
DWIDTH 20 0
BBX 18 18 0 -4
BITMAP
FFFFC0
FFFFC0
C00CC0
C00CC0
C00CC0
C00CC0
C00CC0
C00CC0
C00CC0
C00CC0
C00CC0
C00CC0
C00CC0
C00CC0
C00CC0
C00CC0
FFFFC0
FFFFC0
ENDCHAR
STARTCHAR parenright
ENCODING 41
SWIDTH 1000 0
DWIDTH 20 0
BBX 18 18 0 -4
BITMAP
FFFFC0
FFFFC0
CC00C0
CC00C0
CC00C0
CC00C0
CC00C0
CC00C0
CC00C0
CC00C0
CC00C0
CC00C0
CC00C0
CC00C0
CC00C0
CC00C0
FFFFC0
FFFFC0
ENDCHAR
STARTCHAR asterisk
ENCODING 42
SWIDTH 1000 0
DWIDTH 20 0
BBX 18 18 0 -4
BITMAP
FFFFC0
FFFFC0
C000C0
C000C0
CCCCC0
CCCCC0
C000C0
C000C0
CC0CC0
CC0CC0
C000C0
C000C0
CCCCC0
CCCCC0
C000C0
C000C0
FFFFC0
FFFFC0
ENDCHAR
STARTCHAR plus
ENCODING 43
SWIDTH 1000 0
DWIDTH 20 0
BBX 18 18 0 -4
BITMAP
FFFFC0
FFFFC0
C000C0
C000C0
C0C0C0
C0C0C0
C0C0C0
C0C0C0
CFFCC0
CFFCC0
C0C0C0
C0C0C0
C0C0C0
C0C0C0
C000C0
C000C0
FFFFC0
FFFFC0
ENDCHAR
STARTCHAR comma
ENCODING 44
SWIDTH 1000 0
DWIDTH 20 0
BBX 18 18 0 -4
BITMAP
FFFFC0
FFFFC0
C000C0
C000C0
C000C0
C000C0
C000C0
C000C0
C000C0
C000C0
C0C0C0
C0C0C0
C0C0C0
C0C0C0
C000C0
C000C0
FFFFC0
FFFFC0
ENDCHAR
STARTCHAR hyphen
ENCODING 45
SWIDTH 1000 0
DWIDTH 20 0
BBX 18 18 0 -4
BITMAP
FFFFC0
FFFFC0
C000C0
C000C0
C000C0
C000C0
C000C0
C000C0
CFFCC0
CFFCC0
C000C0
C000C0
C000C0
C000C0
C000C0
C000C0
FFFFC0
FFFFC0
ENDCHAR
STARTCHAR period
ENCODING 46
SWIDTH 1000 0
DWIDTH 20 0
BBX 18 18 0 -4
BITMAP
FFFFC0
FFFFC0
C000C0
C000C0
C000C0
C000C0
C000C0
C000C0
C0C0C0
C0C0C0
C000C0
C000C0
C000C0
C000C0
C000C0
C000C0
FFFFC0
FFFFC0
ENDCHAR
STARTCHAR slash
ENCODING 47
SWIDTH 1000 0
DWIDTH 20 0
BBX 18 18 0 -4
BITMAP
FFFFC0
FFFFC0
C000C0
C000C0
C0FFC0
C0FFC0
C0C0C0
C0C0C0
C0C0C0
C0C0C0
C0C0C0
C0C0C0
FFC0C0
FFC0C0
C000C0
C000C0
FFFFC0
FFFFC0
ENDCHAR
STARTCHAR zero
ENCODING 48
SWIDTH 1000 0
DWIDTH 20 0
BBX 18 18 0 -4
BITMAP
FFFFC0
FFFFC0
C000C0
C000C0
C000C0
C000C0
C000C0
C000C0
C000C0
C000C0
C000C0
C000C0
C000C0
C000C0
C000C0
C000C0
FFFFC0
FFFFC0
ENDCHAR
STARTCHAR one
ENCODING 49
SWIDTH 1000 0
DWIDTH 20 0
BBX 18 18 0 -4
BITMAP
FFFFC0
FFFFC0
C0C0C0
C0C0C0
C0C0C0
C0C0C0
C0C0C0
C0C0C0
C0C0C0
C0C0C0
C000C0
C000C0
C000C0
C000C0
C000C0
C000C0
FFFFC0
FFFFC0
ENDCHAR
STARTCHAR two
ENCODING 50
SWIDTH 1000 0
DWIDTH 20 0
BBX 18 18 0 -4
BITMAP
FFFFC0
FFFFC0
C000C0
C000C0
C000C0
C000C0
C000C0
C000C0
C0FFC0
C0FFC0
C000C0
C000C0
C000C0
C000C0
C000C0
C000C0
FFFFC0
FFFFC0
ENDCHAR
STARTCHAR three
ENCODING 51
SWIDTH 1000 0
DWIDTH 20 0
BBX 18 18 0 -4
BITMAP
FFFFC0
FFFFC0
C000C0
C000C0
C000C0
C000C0
C000C0
C000C0
C0C0C0
C0C0C0
C0C0C0
C0C0C0
C0C0C0
C0C0C0
C0C0C0
C0C0C0
FFFFC0
FFFFC0
ENDCHAR
STARTCHAR four
ENCODING 52
SWIDTH 1000 0
DWIDTH 20 0
BBX 18 18 0 -4
BITMAP
FFFFC0
FFFFC0
C0C0C0
C0C0C0
C0C0C0
C0C0C0
C0C0C0
C0C0C0
C0C0C0
C0C0C0
C0C0C0
C0C0C0
C0C0C0
C0C0C0
C0C0C0
C0C0C0
FFFFC0
FFFFC0
ENDCHAR
STARTCHAR five
ENCODING 53
SWIDTH 1000 0
DWIDTH 20 0
BBX 18 18 0 -4
BITMAP
FFFFC0
FFFFC0
C000C0
C000C0
C000C0
C000C0
C000C0
C000C0
C0FFC0
C0FFC0
C0C0C0
C0C0C0
C0C0C0
C0C0C0
C0C0C0
C0C0C0
FFFFC0
FFFFC0
ENDCHAR
STARTCHAR six
ENCODING 54
SWIDTH 1000 0
DWIDTH 20 0
BBX 18 18 0 -4
BITMAP
FFFFC0
FFFFC0
C000C0
C000C0
C000C0
C000C0
C000C0
C000C0
FFFFC0
FFFFC0
C000C0
C000C0
C000C0
C000C0
C000C0
C000C0
FFFFC0
FFFFC0
ENDCHAR
STARTCHAR seven
ENCODING 55
SWIDTH 1000 0
DWIDTH 20 0
BBX 18 18 0 -4
BITMAP
FFFFC0
FFFFC0
C0C0C0
C0C0C0
C0C0C0
C0C0C0
C0C0C0
C0C0C0
FFFFC0
FFFFC0
C000C0
C000C0
C000C0
C000C0
C000C0
C000C0
FFFFC0
FFFFC0
ENDCHAR
STARTCHAR eight
ENCODING 56
SWIDTH 1000 0
DWIDTH 20 0
BBX 18 18 0 -4
BITMAP
FFFFC0
FFFFC0
C0C0C0
C0C0C0
C0C0C0
C0C0C0
C0C0C0
C0C0C0
FFC0C0
FFC0C0
C0C0C0
C0C0C0
C0C0C0
C0C0C0
C0C0C0
C0C0C0
FFFFC0
FFFFC0
ENDCHAR
STARTCHAR nine
ENCODING 57
SWIDTH 1000 0
DWIDTH 20 0
BBX 18 18 0 -4
BITMAP
FFFFC0
FFFFC0
C000C0
C000C0
C000C0
C000C0
C000C0
C000C0
FFFFC0
FFFFC0
C0C0C0
C0C0C0
C0C0C0
C0C0C0
C0C0C0
C0C0C0
FFFFC0
FFFFC0
ENDCHAR
STARTCHAR colon
ENCODING 58
SWIDTH 1000 0
DWIDTH 20 0
BBX 18 18 0 -4
BITMAP
FFFFC0
FFFFC0
C000C0
C000C0
C0C0C0
C0C0C0
C000C0
C000C0
C000C0
C000C0
C000C0
C000C0
C0C0C0
C0C0C0
C000C0
C000C0
FFFFC0
FFFFC0
ENDCHAR
STARTCHAR semicolon
ENCODING 59
SWIDTH 1000 0
DWIDTH 20 0
BBX 18 18 0 -4
BITMAP
FFFFC0
FFFFC0
C000C0
C000C0
C0C0C0
C0C0C0
C000C0
C000C0
C000C0
C000C0
C0C0C0
C0C0C0
C0C0C0
C0C0C0
C000C0
C000C0
FFFFC0
FFFFC0
ENDCHAR
STARTCHAR less
ENCODING 60
SWIDTH 1000 0
DWIDTH 20 0
BBX 18 18 0 -4
BITMAP
FFFFC0
FFFFC0
C000C0
C000C0
CFC0C0
CFC0C0
CC00C0
CC00C0
CC00C0
CC00C0
CC00C0
CC00C0
CFC0C0
CFC0C0
C000C0
C000C0
FFFFC0
FFFFC0
ENDCHAR
STARTCHAR equal
ENCODING 61
SWIDTH 1000 0
DWIDTH 20 0
BBX 18 18 0 -4
BITMAP
FFFFC0
FFFFC0
C000C0
C000C0
C000C0
C000C0
CFFCC0
CFFCC0
C000C0
C000C0
CFFCC0
CFFCC0
C000C0
C000C0
C000C0
C000C0
FFFFC0
FFFFC0
ENDCHAR
STARTCHAR greater
ENCODING 62
SWIDTH 1000 0
DWIDTH 20 0
BBX 18 18 0 -4
BITMAP
FFFFC0
FFFFC0
C000C0
C000C0
C0FCC0
C0FCC0
C00CC0
C00CC0
C00CC0
C00CC0
C00CC0
C00CC0
C0FCC0
C0FCC0
C000C0
C000C0
FFFFC0
FFFFC0
ENDCHAR
STARTCHAR question
ENCODING 63
SWIDTH 1000 0
DWIDTH 20 0
BBX 18 18 0 -4
BITMAP
FFFFC0
FFFFC0
C000C0
C000C0
CFFCC0
CFFCC0
CC0CC0
CC0CC0
CFCCC0
CFCCC0
C00CC0
C00CC0
C0FCC0
C0FCC0
C0C0C0
C0C0C0
FFFFC0
FFFFC0
ENDCHAR
STARTCHAR at
ENCODING 64
SWIDTH 1000 0
DWIDTH 20 0
BBX 18 18 0 -4
BITMAP
FFFFC0
FFFFC0
C000C0
C000C0
CFFCC0
CFFCC0
CC0CC0
CC0CC0
CCCCC0
CCCCC0
CC0CC0
CC0CC0
CFFFC0
CFFFC0
C000C0
C000C0
FFFFC0
FFFFC0
ENDCHAR
STARTCHAR A
ENCODING 65
SWIDTH 1000 0
DWIDTH 20 0
BBX 18 18 0 -4
BITMAP
FFFFC0
FFFFC0
FFFFC0
FFFFC0
FFFFC0
FFFFC0
FFFFC0
FFFFC0
F003C0
F003C0
F3F3C0
F3F3C0
03F000
03F000
FFFFC0
FFFFC0
FFFFC0
FFFFC0
ENDCHAR
STARTCHAR B
ENCODING 66
SWIDTH 1000 0
DWIDTH 20 0
BBX 18 18 0 -4
BITMAP
FFFFC0
FFFFC0
FFFFC0
FFFFC0
F003C0
F003C0
F3F3C0
F3F3C0
F3F3C0
F3F3C0
F3F3C0
F3F3C0
0003C0
0003C0
FFFFC0
FFFFC0
FFFFC0
FFFFC0
ENDCHAR
STARTCHAR C
ENCODING 67
SWIDTH 1000 0
DWIDTH 20 0
BBX 18 18 0 -4
BITMAP
FFFFC0
FFFFC0
FFFFC0
FFFFC0
FFF000
FFF000
FFF3C0
FFF3C0
FFF3C0
FFF3C0
FFF3C0
FFF3C0
FFF000
FFF000
FFFFC0
FFFFC0
FFFFC0
FFFFC0
ENDCHAR
STARTCHAR D
ENCODING 68
SWIDTH 1000 0
DWIDTH 20 0
BBX 18 18 0 -4
BITMAP
FFFFC0
FFFFC0
FFFFC0
FFFFC0
FFFFC0
FFFFC0
FFFFC0
FFFFC0
003FC0
003FC0
FF3FC0
FF3FC0
FF3FC0
FF3FC0
FF3FC0
FF3FC0
FF3FC0
FF3FC0
ENDCHAR
STARTCHAR E
ENCODING 69
SWIDTH 1000 0
DWIDTH 20 0
BBX 18 18 0 -4
BITMAP
FFFFC0
FFFFC0
FFFFC0
FFFFC0
03FFC0
03FFC0
F3FFC0
F3FFC0
F00000
F00000
FFFFC0
FFFFC0
FFFFC0
FFFFC0
FFFFC0
FFFFC0
FFFFC0
FFFFC0
ENDCHAR
STARTCHAR F
ENCODING 70
SWIDTH 1000 0
DWIDTH 20 0
BBX 18 18 0 -4
BITMAP
FFFFC0
FFFFC0
FFFFC0
FFFFC0
FF3FC0
FF3FC0
FF3FC0
FF3FC0
003FC0
003FC0
FF3FC0
FF3FC0
FF3FC0
FF3FC0
FFFFC0
FFFFC0
FFFFC0
FFFFC0
ENDCHAR
STARTCHAR G
ENCODING 71
SWIDTH 1000 0
DWIDTH 20 0
BBX 18 18 0 -4
BITMAP
FF3FC0
FF3FC0
FF3FC0
FF3FC0
F03FC0
F03FC0
F3FFC0
F3FFC0
F3FFC0
F3FFC0
F3FFC0
F3FFC0
F03FC0
F03FC0
FF3FC0
FF3FC0
FF3FC0
FF3FC0
ENDCHAR
STARTCHAR H
ENCODING 72
SWIDTH 1000 0
DWIDTH 20 0
BBX 18 18 0 -4
BITMAP
FFFFC0
FFFFC0
FFFFC0
FFFFC0
F003C0
F003C0
F3F3C0
F3F3C0
F3F3C0
F3F3C0
F3F3C0
F3F3C0
F003C0
F003C0
FFF3C0
FFF3C0
FFF3C0
FFF3C0
ENDCHAR
STARTCHAR I
ENCODING 73
SWIDTH 1000 0
DWIDTH 20 0
BBX 18 18 0 -4
BITMAP
F3F3C0
F3F3C0
F3F3C0
F3F3C0
F003C0
F003C0
FFFFC0
FFFFC0
FFFFC0
FFFFC0
FFFFC0
FFFFC0
FFFFC0
FFFFC0
FFFFC0
FFFFC0
FFFFC0
FFFFC0
ENDCHAR
STARTCHAR J
ENCODING 74
SWIDTH 1000 0
DWIDTH 20 0
BBX 18 18 0 -4
BITMAP
FFFFC0
FFFFC0
FFFFC0
FFFFC0
FFFFC0
FFFFC0
FFFFC0
FFFFC0
FF0000
FF0000
FF3FC0
FF3FC0
FF3FC0
FF3FC0
FF3FC0
FF3FC0
FF3FC0
FF3FC0
ENDCHAR
STARTCHAR K
ENCODING 75
SWIDTH 1000 0
DWIDTH 20 0
BBX 18 18 0 -4
BITMAP
FFF3C0
FFF3C0
FFF3C0
FFF3C0
FF03C0
FF03C0
FF3FC0
FF3FC0
FF3FC0
FF3FC0
FF3FC0
FF3FC0
FF3FC0
FF3FC0
FF3FC0
FF3FC0
FF3FC0
FF3FC0
ENDCHAR
STARTCHAR L
ENCODING 76
SWIDTH 1000 0
DWIDTH 20 0
BBX 18 18 0 -4
BITMAP
FF3FC0
FF3FC0
FF3FC0
FF3FC0
FF3FC0
FF3FC0
FF3FC0
FF3FC0
F003C0
F003C0
FFFFC0
FFFFC0
FFFFC0
FFFFC0
FFFFC0
FFFFC0
FFFFC0
FFFFC0
ENDCHAR
STARTCHAR M
ENCODING 77
SWIDTH 1000 0
DWIDTH 20 0
BBX 18 18 0 -4
BITMAP
FFFFC0
FFFFC0
FFFFC0
FFFFC0
F003C0
F003C0
F3F3C0
F3F3C0
F3F3C0
F3F3C0
03F000
03F000
FFFFC0
FFFFC0
FFFFC0
FFFFC0
FFFFC0
FFFFC0
ENDCHAR
STARTCHAR N
ENCODING 78
SWIDTH 1000 0
DWIDTH 20 0
BBX 18 18 0 -4
BITMAP
FFFFC0
FFFFC0
FFFFC0
FFFFC0
F00000
F00000
F3F3C0
F3F3C0
F3F3C0
F3F3C0
F3F3C0
F3F3C0
F003C0
F003C0
FFFFC0
FFFFC0
FFFFC0
FFFFC0
ENDCHAR
STARTCHAR O
ENCODING 79
SWIDTH 1000 0
DWIDTH 20 0
BBX 18 18 0 -4
BITMAP
FFFFC0
FFFFC0
FFFFC0
FFFFC0
03FFC0
03FFC0
F3FFC0
F3FFC0
F3FFC0
F3FFC0
F3FFC0
F3FFC0
03FFC0
03FFC0
FFFFC0
FFFFC0
FFFFC0
FFFFC0
ENDCHAR
STARTCHAR P
ENCODING 80
SWIDTH 1000 0
DWIDTH 20 0
BBX 18 18 0 -4
BITMAP
FFCFC0
FFCFC0
FFCFC0
FFCFC0
FFCFC0
FFCFC0
FFC000
FFC000
FFFFC0
FFFFC0
FFFFC0
FFFFC0
FFFFC0
FFFFC0
FFFFC0
FFFFC0
FFFFC0
FFFFC0
ENDCHAR
STARTCHAR Q
ENCODING 81
SWIDTH 1000 0
DWIDTH 20 0
BBX 18 18 0 -4
BITMAP
FFCFC0
FFCFC0
FFCFC0
FFCFC0
FFCFC0
FFCFC0
FFCFC0
FFCFC0
FFCFC0
FFCFC0
F00FC0
F00FC0
F3FFC0
F3FFC0
F3FFC0
F3FFC0
F3FFC0
F3FFC0
ENDCHAR
STARTCHAR R
ENCODING 82
SWIDTH 1000 0
DWIDTH 20 0
BBX 18 18 0 -4
BITMAP
FFFFC0
FFFFC0
FFFFC0
FFFFC0
F3CFC0
F3CFC0
F3CFC0
F3CFC0
F00000
F00000
F3CFC0
F3CFC0
F3CFC0
F3CFC0
FFFFC0
FFFFC0
FFFFC0
FFFFC0
ENDCHAR
STARTCHAR S
ENCODING 83
SWIDTH 1000 0
DWIDTH 20 0
BBX 18 18 0 -4
BITMAP
FF3FC0
FF3FC0
FF3FC0
FF3FC0
FF03C0
FF03C0
FFF3C0
FFF3C0
FFF3C0
FFF3C0
FFF3C0
FFF3C0
FF03C0
FF03C0
FF3FC0
FF3FC0
FF3FC0
FF3FC0
ENDCHAR
STARTCHAR T
ENCODING 84
SWIDTH 1000 0
DWIDTH 20 0
BBX 18 18 0 -4
BITMAP
F3FFC0
F3FFC0
F3FFC0
F3FFC0
F003C0
F003C0
F3F3C0
F3F3C0
F3F3C0
F3F3C0
F3F3C0
F3F3C0
F003C0
F003C0
FFFFC0
FFFFC0
FFFFC0
FFFFC0
ENDCHAR
STARTCHAR U
ENCODING 85
SWIDTH 1000 0
DWIDTH 20 0
BBX 18 18 0 -4
BITMAP
FFFFC0
FFFFC0
FFFFC0
FFFFC0
FFFFC0
FFFFC0
FFFFC0
FFFFC0
FFFFC0
FFFFC0
FFFFC0
FFFFC0
F003C0
F003C0
F3F3C0
F3F3C0
F3F3C0
F3F3C0
ENDCHAR
STARTCHAR V
ENCODING 86
SWIDTH 1000 0
DWIDTH 20 0
BBX 18 18 0 -4
BITMAP
FFFFC0
FFFFC0
FFFFC0
FFFFC0
FFFFC0
FFFFC0
FFFFC0
FFFFC0
F003C0
F003C0
F3F3C0
F3F3C0
F3F3C0
F3F3C0
F3F3C0
F3F3C0
F3F3C0
F3F3C0
ENDCHAR
STARTCHAR W
ENCODING 87
SWIDTH 1000 0
DWIDTH 20 0
BBX 18 18 0 -4
BITMAP
FCFFC0
FCFFC0
FCFFC0
FCFFC0
FCFFC0
FCFFC0
00FFC0
00FFC0
FFFFC0
FFFFC0
FFFFC0
FFFFC0
FFFFC0
FFFFC0
FFFFC0
FFFFC0
FFFFC0
FFFFC0
ENDCHAR
STARTCHAR X
ENCODING 88
SWIDTH 1000 0
DWIDTH 20 0
BBX 18 18 0 -4
BITMAP
FFCFC0
FFCFC0
FFCFC0
FFCFC0
FFCFC0
FFCFC0
F00FC0
F00FC0
F3FFC0
F3FFC0
F3FFC0
F3FFC0
F3FFC0
F3FFC0
F3FFC0
F3FFC0
F3FFC0
F3FFC0
ENDCHAR
STARTCHAR Y
ENCODING 89
SWIDTH 1000 0
DWIDTH 20 0
BBX 18 18 0 -4
BITMAP
FF3FC0
FF3FC0
FF3FC0
FF3FC0
FF3FC0
FF3FC0
F003C0
F003C0
FF3FC0
FF3FC0
FF3FC0
FF3FC0
F003C0
F003C0
FFFFC0
FFFFC0
FFFFC0
FFFFC0
ENDCHAR
STARTCHAR Z
ENCODING 90
SWIDTH 1000 0
DWIDTH 20 0
BBX 18 18 0 -4
BITMAP
FFFFC0
FFFFC0
FFFFC0
FFFFC0
003FC0
003FC0
FF3FC0
FF3FC0
FF3FC0
FF3FC0
FF3FC0
FF3FC0
FF0000
FF0000
FFFFC0
FFFFC0
FFFFC0
FFFFC0
ENDCHAR
STARTCHAR bracketleft
ENCODING 91
SWIDTH 1000 0
DWIDTH 20 0
BBX 10 18 8 -4
BITMAP
FCC0
FCC0
C000
C000
C000
C000
C000
C000
C000
C000
C000
C000
C000
C000
C000
C000
FCC0
FCC0
ENDCHAR
STARTCHAR backslash
ENCODING 92
SWIDTH 1000 0
DWIDTH 20 0
BBX 18 18 0 -4
BITMAP
CFC000
CFC000
00C000
00C000
00C000
00C000
00C000
00C000
00C000
00C000
00C000
00C000
00C000
00C000
00C000
00C000
00FCC0
00FCC0
ENDCHAR
STARTCHAR bracketright
ENCODING 93
SWIDTH 1000 0
DWIDTH 20 0
BBX 10 18 0 -4
BITMAP
CFC0
CFC0
00C0
00C0
00C0
00C0
00C0
00C0
00C0
00C0
00C0
00C0
00C0
00C0
00C0
00C0
CFC0
CFC0
ENDCHAR
STARTCHAR asciicircum
ENCODING 94
SWIDTH 1000 0
DWIDTH 20 0
BBX 10 18 4 -4
BITMAP
0C00
0C00
3F00
3F00
CCC0
CCC0
0C00
0C00
0C00
0C00
0C00
0C00
0C00
0C00
0C00
0C00
0C00
0C00
ENDCHAR
STARTCHAR underscore
ENCODING 95
SWIDTH 1000 0
DWIDTH 20 0
BBX 18 2 0 -4
BITMAP
CFFCC0
CFFCC0
ENDCHAR
STARTCHAR grave
ENCODING 96
SWIDTH 1000 0
DWIDTH 20 0
BBX 6 6 6 2
BITMAP
F0
F0
30
30
3C
3C
ENDCHAR
STARTCHAR a
ENCODING 97
SWIDTH 1000 0
DWIDTH 20 0
BBX 18 18 0 -4
BITMAP
FFFFC0
FFFFC0
C000C0
C000C0
C000C0
C000C0
C000C0
C000C0
CFFCC0
CFFCC0
CC0CC0
CC0CC0
FC0FC0
FC0FC0
C000C0
C000C0
FFFFC0
FFFFC0
ENDCHAR
STARTCHAR b
ENCODING 98
SWIDTH 1000 0
DWIDTH 20 0
BBX 18 18 0 -4
BITMAP
FFFFC0
FFFFC0
C000C0
C000C0
CFFCC0
CFFCC0
CC0CC0
CC0CC0
CC0CC0
CC0CC0
CC0CC0
CC0CC0
FFFCC0
FFFCC0
C000C0
C000C0
FFFFC0
FFFFC0
ENDCHAR
STARTCHAR c
ENCODING 99
SWIDTH 1000 0
DWIDTH 20 0
BBX 18 18 0 -4
BITMAP
FFFFC0
FFFFC0
C000C0
C000C0
C03FC0
C03FC0
C030C0
C030C0
C030C0
C030C0
C030C0
C030C0
C03FC0
C03FC0
C000C0
C000C0
FFFFC0
FFFFC0
ENDCHAR
STARTCHAR d
ENCODING 100
SWIDTH 1000 0
DWIDTH 20 0
BBX 18 18 0 -4
BITMAP
FFFFC0
FFFFC0
C000C0
C000C0
C000C0
C000C0
C000C0
C000C0
FFC0C0
FFC0C0
C0C0C0
C0C0C0
C0C0C0
C0C0C0
C0C0C0
C0C0C0
FFFFC0
FFFFC0
ENDCHAR
STARTCHAR e
ENCODING 101
SWIDTH 1000 0
DWIDTH 20 0
BBX 18 18 0 -4
BITMAP
FFFFC0
FFFFC0
C000C0
C000C0
FF00C0
FF00C0
C300C0
C300C0
C3FFC0
C3FFC0
C000C0
C000C0
C000C0
C000C0
C000C0
C000C0
FFFFC0
FFFFC0
ENDCHAR
STARTCHAR f
ENCODING 102
SWIDTH 1000 0
DWIDTH 20 0
BBX 18 18 0 -4
BITMAP
FFFFC0
FFFFC0
C000C0
C000C0
CC30C0
CC30C0
CC30C0
CC30C0
FFF0C0
FFF0C0
CC30C0
CC30C0
CC30C0
CC30C0
C000C0
C000C0
FFFFC0
FFFFC0
ENDCHAR
STARTCHAR g
ENCODING 103
SWIDTH 1000 0
DWIDTH 20 0
BBX 18 18 0 -4
BITMAP
FFFFC0
FFFFC0
C0C0C0
C0C0C0
CFC0C0
CFC0C0
CC00C0
CC00C0
CC00C0
CC00C0
CC00C0
CC00C0
CFC0C0
CFC0C0
C0C0C0
C0C0C0
FFFFC0
FFFFC0
ENDCHAR
STARTCHAR h
ENCODING 104
SWIDTH 1000 0
DWIDTH 20 0
BBX 18 18 0 -4
BITMAP
FFFFC0
FFFFC0
C000C0
C000C0
CFFCC0
CFFCC0
CC0CC0
CC0CC0
CC0CC0
CC0CC0
CC0CC0
CC0CC0
CFFCC0
CFFCC0
C00CC0
C00CC0
FFFFC0
FFFFC0
ENDCHAR
STARTCHAR i
ENCODING 105
SWIDTH 1000 0
DWIDTH 20 0
BBX 18 18 0 -4
BITMAP
FFFFC0
FFFFC0
CC0CC0
CC0CC0
CC0CC0
CC0CC0
CFFCC0
CFFCC0
C000C0
C000C0
C000C0
C000C0
C000C0
C000C0
C000C0
C000C0
FFFFC0
FFFFC0
ENDCHAR
STARTCHAR j
ENCODING 106
SWIDTH 1000 0
DWIDTH 20 0
BBX 18 18 0 -4
BITMAP
FFFFC0
FFFFC0
C000C0
C000C0
C000C0
C000C0
C000C0
C000C0
C0FFC0
C0FFC0
C0C0C0
C0C0C0
C0C0C0
C0C0C0
C0C0C0
C0C0C0
FFFFC0
FFFFC0
ENDCHAR
STARTCHAR k
ENCODING 107
SWIDTH 1000 0
DWIDTH 20 0
BBX 18 18 0 -4
BITMAP
FFFFC0
FFFFC0
C00CC0
C00CC0
C00CC0
C00CC0
C0FCC0
C0FCC0
C0C0C0
C0C0C0
C0C0C0
C0C0C0
C0C0C0
C0C0C0
C0C0C0
C0C0C0
FFFFC0
FFFFC0
ENDCHAR
STARTCHAR l
ENCODING 108
SWIDTH 1000 0
DWIDTH 20 0
BBX 18 18 0 -4
BITMAP
FFFFC0
FFFFC0
C0C0C0
C0C0C0
CFFCC0
CFFCC0
C0C0C0
C0C0C0
C0C0C0
C0C0C0
CFFCC0
CFFCC0
C000C0
C000C0
C000C0
C000C0
FFFFC0
FFFFC0
ENDCHAR
STARTCHAR m
ENCODING 109
SWIDTH 1000 0
DWIDTH 20 0
BBX 18 18 0 -4
BITMAP
FFFFC0
FFFFC0
C000C0
C000C0
CFFCC0
CFFCC0
CC0CC0
CC0CC0
CC0CC0
CC0CC0
FC0FC0
FC0FC0
C000C0
C000C0
C000C0
C000C0
FFFFC0
FFFFC0
ENDCHAR
STARTCHAR n
ENCODING 110
SWIDTH 1000 0
DWIDTH 20 0
BBX 18 18 0 -4
BITMAP
FFFFC0
FFFFC0
C000C0
C000C0
CFFFC0
CFFFC0
CC0CC0
CC0CC0
CC0CC0
CC0CC0
CC0CC0
CC0CC0
CFFCC0
CFFCC0
C000C0
C000C0
FFFFC0
FFFFC0
ENDCHAR
STARTCHAR o
ENCODING 111
SWIDTH 1000 0
DWIDTH 20 0
BBX 18 18 0 -4
BITMAP
FFFFC0
FFFFC0
C000C0
C000C0
FF00C0
FF00C0
C300C0
C300C0
C300C0
C300C0
C300C0
C300C0
FF00C0
FF00C0
C000C0
C000C0
FFFFC0
FFFFC0
ENDCHAR
STARTCHAR p
ENCODING 112
SWIDTH 1000 0
DWIDTH 20 0
BBX 18 18 0 -4
BITMAP
FFFFC0
FFFFC0
C030C0
C030C0
C030C0
C030C0
C03FC0
C03FC0
C000C0
C000C0
C000C0
C000C0
C000C0
C000C0
C000C0
C000C0
FFFFC0
FFFFC0
ENDCHAR
STARTCHAR q
ENCODING 113
SWIDTH 1000 0
DWIDTH 20 0
BBX 18 18 0 -4
BITMAP
FFFFC0
FFFFC0
C030C0
C030C0
C030C0
C030C0
C030C0
C030C0
C030C0
C030C0
CFF0C0
CFF0C0
CC00C0
CC00C0
CC00C0
CC00C0
FFFFC0
FFFFC0
ENDCHAR
STARTCHAR r
ENCODING 114
SWIDTH 1000 0
DWIDTH 20 0
BBX 18 18 0 -4
BITMAP
FFFFC0
FFFFC0
C000C0
C000C0
CC30C0
CC30C0
CC30C0
CC30C0
CFFFC0
CFFFC0
CC30C0
CC30C0
CC30C0
CC30C0
C000C0
C000C0
FFFFC0
FFFFC0
ENDCHAR
STARTCHAR s
ENCODING 115
SWIDTH 1000 0
DWIDTH 20 0
BBX 18 18 0 -4
BITMAP
FFFFC0
FFFFC0
C0C0C0
C0C0C0
C0FCC0
C0FCC0
C00CC0
C00CC0
C00CC0
C00CC0
C00CC0
C00CC0
C0FCC0
C0FCC0
C0C0C0
C0C0C0
FFFFC0
FFFFC0
ENDCHAR
STARTCHAR t
ENCODING 116
SWIDTH 1000 0
DWIDTH 20 0
BBX 18 18 0 -4
BITMAP
FFFFC0
FFFFC0
CC00C0
CC00C0
CFFCC0
CFFCC0
CC0CC0
CC0CC0
CC0CC0
CC0CC0
CC0CC0
CC0CC0
CFFCC0
CFFCC0
C000C0
C000C0
FFFFC0
FFFFC0
ENDCHAR
STARTCHAR u
ENCODING 117
SWIDTH 1000 0
DWIDTH 20 0
BBX 18 18 0 -4
BITMAP
FFFFC0
FFFFC0
C000C0
C000C0
C000C0
C000C0
C000C0
C000C0
C000C0
C000C0
CFFCC0
CFFCC0
CC0CC0
CC0CC0
CC0CC0
CC0CC0
FFFFC0
FFFFC0
ENDCHAR
STARTCHAR v
ENCODING 118
SWIDTH 1000 0
DWIDTH 20 0
BBX 18 18 0 -4
BITMAP
FFFFC0
FFFFC0
C000C0
C000C0
C000C0
C000C0
CFFCC0
CFFCC0
CC0CC0
CC0CC0
CC0CC0
CC0CC0
CC0CC0
CC0CC0
CC0CC0
CC0CC0
FFFFC0
FFFFC0
ENDCHAR
STARTCHAR w
ENCODING 119
SWIDTH 1000 0
DWIDTH 20 0
BBX 18 18 0 -4
BITMAP
FFFFC0
FFFFC0
C300C0
C300C0
C300C0
C300C0
FF00C0
FF00C0
C000C0
C000C0
C000C0
C000C0
C000C0
C000C0
C000C0
C000C0
FFFFC0
FFFFC0
ENDCHAR
STARTCHAR x
ENCODING 120
SWIDTH 1000 0
DWIDTH 20 0
BBX 18 18 0 -4
BITMAP
FFFFC0
FFFFC0
C030C0
C030C0
C030C0
C030C0
CFF0C0
CFF0C0
CC00C0
CC00C0
CC00C0
CC00C0
CC00C0
CC00C0
CC00C0
CC00C0
FFFFC0
FFFFC0
ENDCHAR
STARTCHAR y
ENCODING 121
SWIDTH 1000 0
DWIDTH 20 0
BBX 18 18 0 -4
BITMAP
FFFFC0
FFFFC0
C0C0C0
C0C0C0
CFFCC0
CFFCC0
C0C0C0
C0C0C0
C0C0C0
C0C0C0
CFFCC0
CFFCC0
C000C0
C000C0
C000C0
C000C0
FFFFC0
FFFFC0
ENDCHAR
STARTCHAR z
ENCODING 122
SWIDTH 1000 0
DWIDTH 20 0
BBX 18 18 0 -4
BITMAP
FFFFC0
FFFFC0
C000C0
C000C0
FFC0C0
FFC0C0
C0C0C0
C0C0C0
C0C0C0
C0C0C0
C0C0C0
C0C0C0
C0FFC0
C0FFC0
C000C0
C000C0
FFFFC0
FFFFC0
ENDCHAR
STARTCHAR braceleft
ENCODING 123
SWIDTH 1000 0
DWIDTH 20 0
BBX 8 18 10 -4
BITMAP
F3
F3
C0
C0
C0
C0
C0
C0
F3
F3
C0
C0
C0
C0
C0
C0
F3
F3
ENDCHAR
STARTCHAR bar
ENCODING 124
SWIDTH 1000 0
DWIDTH 20 0
BBX 2 18 8 -4
BITMAP
C0
C0
C0
C0
C0
C0
C0
C0
C0
C0
C0
C0
C0
C0
C0
C0
C0
C0
ENDCHAR
STARTCHAR braceright
ENCODING 125
SWIDTH 1000 0
DWIDTH 20 0
BBX 8 18 0 -4
BITMAP
CF
CF
03
03
03
03
03
03
CF
CF
03
03
03
03
03
03
CF
CF
ENDCHAR
STARTCHAR asciitilde
ENCODING 126
SWIDTH 1000 0
DWIDTH 20 0
BBX 18 8 0 2
BITMAP
CFC000
CFC000
00C000
00C000
00C000
00C000
00FCC0
00FCC0
ENDCHAR
STARTCHAR block
ENCODING 9608
SWIDTH 1000 0
DWIDTH 20 0
BBX 20 20 0 -4
BITMAP
FFFFF0
FFFFF0
FFFFF0
FFFFF0
FFFFF0
FFFFF0
FFFFF0
FFFFF0
FFFFF0
FFFFF0
FFFFF0
FFFFF0
FFFFF0
FFFFF0
FFFFF0
FFFFF0
FFFFF0
FFFFF0
FFFFF0
FFFFF0
ENDCHAR
STARTCHAR uni2B60
ENCODING 11104
SWIDTH 1000 0
DWIDTH 20 0
BBX 6 18 8 -4
BITMAP
C0
C0
C0
C0
CC
CC
CC
CC
0C
0C
30
30
C0
C0
C0
C0
C0
C0
ENDCHAR
STARTCHAR uni2B61
ENCODING 11105
SWIDTH 1000 0
DWIDTH 20 0
BBX 18 18 0 -4
BITMAP
CFFFC0
CFFFC0
C000C0
C000C0
C000C0
C000C0
C00000
C00000
FC30C0
FC30C0
0030C0
0030C0
C03CC0
C03CC0
C033C0
C033C0
FF30C0
FF30C0
ENDCHAR
STARTCHAR uni2B64
ENCODING 11108
SWIDTH 1000 0
DWIDTH 20 0
BBX 14 18 2 -4
BITMAP
0FC0
0FC0
3030
3030
3030
3030
FFFC
FFFC
C00C
C00C
C30C
C30C
C30C
C30C
C00C
C00C
3FF0
3FF0
ENDCHAR
STARTCHAR uni2B80
ENCODING 11136
SWIDTH 1000 0
DWIDTH 20 0
BBX 10 18 0 -4
BITMAP
C000
C000
F000
F000
FC00
FC00
FF00
FF00
FFC0
FFC0
FF00
FF00
FC00
FC00
F000
F000
C000
C000
ENDCHAR
STARTCHAR uni2B81
ENCODING 11137
SWIDTH 1000 0
DWIDTH 20 0
BBX 10 20 0 -4
BITMAP
C000
C000
3000
3000
0C00
0C00
0300
0300
00C0
00C0
00C0
00C0
0300
0300
0C00
0C00
3000
3000
C000
C000
ENDCHAR
STARTCHAR uni2B82
ENCODING 11138
SWIDTH 1000 0
DWIDTH 20 0
BBX 10 20 10 -4
BITMAP
00C0
00C0
03C0
03C0
0FC0
0FC0
3FC0
3FC0
FFC0
FFC0
FFC0
FFC0
3FC0
3FC0
0FC0
0FC0
03C0
03C0
00C0
00C0
ENDCHAR
STARTCHAR uni2B83
ENCODING 11139
SWIDTH 1000 0
DWIDTH 20 0
BBX 10 20 10 -4
BITMAP
00C0
00C0
0300
0300
0C00
0C00
3000
3000
C000
C000
C000
C000
3000
3000
0C00
0C00
0300
0300
00C0
00C0
ENDCHAR
STARTCHAR uniE0A0
ENCODING 57504
SWIDTH 1000 0
DWIDTH 20 0
BBX 8 18 6 -4
BITMAP
C0
C0
C0
C0
C3
C3
C3
C3
0C
0C
30
30
C0
C0
C0
C0
C0
C0
ENDCHAR
STARTCHAR uniE0A1
ENCODING 57505
SWIDTH 1000 0
DWIDTH 20 0
BBX 18 18 0 -4
BITMAP
CFFFC0
CFFFC0
C000C0
C000C0
C00000
C00000
C030C0
C030C0
C030C0
C030C0
FF3CC0
FF3CC0
0033C0
0033C0
C030C0
C030C0
FF30C0
FF30C0
ENDCHAR
STARTCHAR uniE0A2
ENCODING 57506
SWIDTH 1000 0
DWIDTH 20 0
BBX 14 18 2 -4
BITMAP
0FC0
0FC0
3030
3030
3030
3030
FFFC
FFFC
C00C
C00C
C30C
C30C
C30C
C30C
C00C
C00C
3FF0
3FF0
ENDCHAR
STARTCHAR uniE0B0
ENCODING 57520
SWIDTH 1000 0
DWIDTH 20 0
BBX 10 20 0 -4
BITMAP
C000
C000
F000
F000
FC00
FC00
FF00
FF00
FFC0
FFC0
FFC0
FFC0
FF00
FF00
FC00
FC00
F000
F000
C000
C000
ENDCHAR
STARTCHAR uniE0B1
ENCODING 57521
SWIDTH 1000 0
DWIDTH 20 0
BBX 10 20 0 -4
BITMAP
C000
C000
3000
3000
0C00
0C00
0300
0300
00C0
00C0
00C0
00C0
0300
0300
0C00
0C00
3000
3000
C000
C000
ENDCHAR
STARTCHAR uniE0B2
ENCODING 57522
SWIDTH 1000 0
DWIDTH 20 0
BBX 10 20 10 -4
BITMAP
00C0
00C0
03C0
03C0
0FC0
0FC0
3FC0
3FC0
FFC0
FFC0
FFC0
FFC0
3FC0
3FC0
0FC0
0FC0
03C0
03C0
00C0
00C0
ENDCHAR
STARTCHAR uniE0B3
ENCODING 57523
SWIDTH 1000 0
DWIDTH 20 0
BBX 10 20 10 -4
BITMAP
00C0
00C0
0300
0300
0C00
0C00
3000
3000
C000
C000
C000
C000
3000
3000
0C00
0C00
0300
0300
00C0
00C0
ENDCHAR
ENDFONT
